{
	"asset":{
		"generator":"Khronos glTF Blender I/O v5.1.20",
		"version":"2.0"
	},
	"scene":0,
	"scenes":[
		{
			"name":"Scene",
			"nodes":[
				0,
				1,
				2,
				3,
				4,
				5
			]
		}
	],
	"nodes":[
		{
			"mesh":0,
			"name":"Base and Head"
		},
		{
			"mesh":1,
			"name":"Spine",
			"translation":[
				0,
				0.11679375916719437,
				0
			]
		},
		{
			"mesh":2,
			"name":"Shoulders",
			"translation":[
				0,
				0.12094315141439438,
				0
			]
		},
		{
			"name":"Empty",
			"rotation":[
				0.2918086051940918,
				0.7036746144294739,
				-0.503100574016571,
				0.4081415832042694
			],
			"scale":[
				0.10999999940395355,
				0.10000000894069672,
				0.10000000894069672
			],
			"translation":[
				-0.28968486189842224,
				0.01661362498998642,
				0.1589454859495163
			]
		},
		{
			"mesh":3,
			"name":"Arms",
			"translation":[
				0,
				0.12168940156698227,
				0
			]
		},
		{
			"mesh":4,
			"name":"Arms.001",
			"translation":[
				0,
				0.12168999761343002,
				0
			]
		}
	],
	"materials":[
		{
			"doubleSided":true,
			"name":"Material.002",
			"pbrMetallicRoughness":{
				"metallicFactor":0,
				"roughnessFactor":0.5
			}
		},
		{
			"doubleSided":true,
			"name":"Material.001",
			"pbrMetallicRoughness":{
				"baseColorFactor":[
					0.1746475100517273,
					0.1746475100517273,
					0.1746475100517273,
					1
				],
				"metallicFactor":0,
				"roughnessFactor":0.5
			}
		},
		{
			"doubleSided":true,
			"name":"Material.003",
			"pbrMetallicRoughness":{
				"baseColorFactor":[
					0.02311445027589798,
					0.02311445027589798,
					0.02311445027589798,
					1
				],
				"metallicFactor":0,
				"roughnessFactor":0.5
			}
		}
	],
	"meshes":[
		{
			"name":"Cylinder",
			"primitives":[
				{
					"attributes":{
						"POSITION":0,
						"NORMAL":1,
						"TEXCOORD_0":2,
						"COLOR_0":3,
						"COLOR_1":4
					},
					"indices":5,
					"material":0
				}
			]
		},
		{
			"name":"Cube.001",
			"primitives":[
				{
					"attributes":{
						"POSITION":6,
						"NORMAL":7,
						"TEXCOORD_0":8
					},
					"indices":9,
					"material":1
				}
			]
		},
		{
			"name":"Cube.002",
			"primitives":[
				{
					"attributes":{
						"POSITION":10,
						"NORMAL":11,
						"TEXCOORD_0":12
					},
					"indices":13,
					"material":1
				}
			]
		},
		{
			"name":"Cube.004",
			"primitives":[
				{
					"attributes":{
						"POSITION":14,
						"NORMAL":15,
						"TEXCOORD_0":16
					},
					"indices":17,
					"material":2
				}
			]
		},
		{
			"name":"Cube.003",
			"primitives":[
				{
					"attributes":{
						"POSITION":18,
						"NORMAL":19,
						"TEXCOORD_0":20
					},
					"indices":21,
					"material":2
				}
			]
		}
	],
	"accessors":[
		{
			"bufferView":0,
			"componentType":5126,
			"count":60,
			"max":[
				0.1060439795255661,
				0.24267172813415527,
				0.12244897335767746
			],
			"min":[
				-0.1060439795255661,
				0.002508469158783555,
				-0.12244897335767746
			],
			"type":"VEC3"
		},
		{
			"bufferView":1,
			"componentType":5126,
			"count":60,
			"type":"VEC3"
		},
		{
			"bufferView":2,
			"componentType":5126,
			"count":60,
			"type":"VEC2"
		},
		{
			"bufferView":3,
			"componentType":5121,
			"count":60,
			"normalized":true,
			"type":"VEC4"
		},
		{
			"bufferView":4,
			"componentType":5123,
			"count":60,
			"normalized":true,
			"type":"VEC4"
		},
		{
			"bufferView":5,
			"componentType":5123,
			"count":96,
			"type":"SCALAR"
		},
		{
			"bufferView":6,
			"componentType":5126,
			"count":24,
			"max":[
				0.01632653921842575,
				0.08163265138864517,
				0.016326529905200005
			],
			"min":[
				-0.01632653921842575,
				-0.08163265138864517,
				-0.016326529905200005
			],
			"type":"VEC3"
		},
		{
			"bufferView":7,
			"componentType":5126,
			"count":24,
			"type":"VEC3"
		},
		{
			"bufferView":8,
			"componentType":5126,
			"count":24,
			"type":"VEC2"
		},
		{
			"bufferView":9,
			"componentType":5123,
			"count":36,
			"type":"SCALAR"
		},
		{
			"bufferView":10,
			"componentType":5126,
			"count":98,
			"max":[
				0.061709556728601456,
				0.01965104229748249,
				0.09411286562681198
			],
			"min":[
				-0.061709556728601456,
				-0.01965104229748249,
				-0.09411286562681198
			],
			"type":"VEC3"
		},
		{
			"bufferView":11,
			"componentType":5126,
			"count":98,
			"type":"VEC3"
		},
		{
			"bufferView":12,
			"componentType":5126,
			"count":98,
			"type":"VEC2"
		},
		{
			"bufferView":13,
			"componentType":5123,
			"count":276,
			"type":"SCALAR"
		},
		{
			"bufferView":14,
			"componentType":5126,
			"count":74,
			"max":[
				0.14923620223999023,
				0.005754365120083094,
				-0.0009009789791889489
			],
			"min":[
				0.027230441570281982,
				-0.005753637291491032,
				-0.0749344602227211
			],
			"type":"VEC3"
		},
		{
			"bufferView":15,
			"componentType":5126,
			"count":74,
			"type":"VEC3"
		},
		{
			"bufferView":16,
			"componentType":5126,
			"count":74,
			"type":"VEC2"
		},
		{
			"bufferView":17,
			"componentType":5123,
			"count":132,
			"type":"SCALAR"
		},
		{
			"bufferView":18,
			"componentType":5126,
			"count":60,
			"max":[
				0.14923620223999023,
				0.005754365120083094,
				0.0749344602227211
			],
			"min":[
				0.027230441570281982,
				-0.005753637291491032,
				0.0009009789791889489
			],
			"type":"VEC3"
		},
		{
			"bufferView":19,
			"componentType":5126,
			"count":60,
			"type":"VEC3"
		},
		{
			"bufferView":20,
			"componentType":5126,
			"count":60,
			"type":"VEC2"
		},
		{
			"bufferView":21,
			"componentType":5123,
			"count":108,
			"type":"SCALAR"
		}
	],
	"bufferViews":[
		{
			"buffer":0,
			"byteLength":720,
			"byteOffset":0,
			"target":34962
		},
		{
			"buffer":0,
			"byteLength":720,
			"byteOffset":720,
			"target":34962
		},
		{
			"buffer":0,
			"byteLength":480,
			"byteOffset":1440,
			"target":34962
		},
		{
			"buffer":0,
			"byteLength":240,
			"byteOffset":1920,
			"target":34962
		},
		{
			"buffer":0,
			"byteLength":480,
			"byteOffset":2160,
			"target":34962
		},
		{
			"buffer":0,
			"byteLength":192,
			"byteOffset":2640,
			"target":34963
		},
		{
			"buffer":0,
			"byteLength":288,
			"byteOffset":2832,
			"target":34962
		},
		{
			"buffer":0,
			"byteLength":288,
			"byteOffset":3120,
			"target":34962
		},
		{
			"buffer":0,
			"byteLength":192,
			"byteOffset":3408,
			"target":34962
		},
		{
			"buffer":0,
			"byteLength":72,
			"byteOffset":3600,
			"target":34963
		},
		{
			"buffer":0,
			"byteLength":1176,
			"byteOffset":3672,
			"target":34962
		},
		{
			"buffer":0,
			"byteLength":1176,
			"byteOffset":4848,
			"target":34962
		},
		{
			"buffer":0,
			"byteLength":784,
			"byteOffset":6024,
			"target":34962
		},
		{
			"buffer":0,
			"byteLength":552,
			"byteOffset":6808,
			"target":34963
		},
		{
			"buffer":0,
			"byteLength":888,
			"byteOffset":7360,
			"target":34962
		},
		{
			"buffer":0,
			"byteLength":888,
			"byteOffset":8248,
			"target":34962
		},
		{
			"buffer":0,
			"byteLength":592,
			"byteOffset":9136,
			"target":34962
		},
		{
			"buffer":0,
			"byteLength":264,
			"byteOffset":9728,
			"target":34963
		},
		{
			"buffer":0,
			"byteLength":720,
			"byteOffset":9992,
			"target":34962
		},
		{
			"buffer":0,
			"byteLength":720,
			"byteOffset":10712,
			"target":34962
		},
		{
			"buffer":0,
			"byteLength":480,
			"byteOffset":11432,
			"target":34962
		},
		{
			"buffer":0,
			"byteLength":216,
			"byteOffset":11912,
			"target":34963
		}
	],
	"buffers":[
		{
			"byteLength":12128,
			"uri":"ROB.bin"
		}
	]
}
